<svg xmlns="http://www.w3.org/2000/svg" width="92" height="92" class="wd-applet wd-applet-org-studio" focusable="false" role="presentation" viewBox="0 0 92 92"><g fill="none" fill-rule="evenodd" class="wd-icon-container"><g fill="#0875E1" fill-rule="nonzero" class="animate-flood" opacity=".2"><path d="M46 83c19.882 0 36-16.118 36-36S65.882 11 46 11 10 27.118 10 47s16.118 36 36 36z" class="color-400-alpha-20"></path></g><path fill="#A6D2FF" fill-rule="nonzero" d="M38 42a4 4 0 0 1 4-4h8a4 4 0 0 1 0 8h-8a4 4 0 0 1-4-4z" class="color-200"></path><path fill="#005CB9" fill-rule="nonzero" d="M38.126 41c.444-1.725 2.01-3 3.874-3h3v-7h2v7h3a4.002 4.002 0 0 1 3.874 3H71a1 1 0 0 1 1 1v6a1 1 0 1 1-2 0v-5H53.874A4.002 4.002 0 0 1 50 46h-8a4.002 4.002 0 0 1-3.874-3H22v5a1 1 0 1 1-2 0v-6a1 1 0 0 1 1-1h17.126zM50 40h-8a2 2 0 1 0 0 4h8a2 2 0 1 0 0-4z" class="color-500"></path><path fill="#A6D2FF" fill-rule="nonzero" d="M61 54.2c0-1.215.995-2.2 2.222-2.2h15.556c1.227 0 2.222.985 2.222 2.2v17.6c0 1.215-.995 2.2-2.222 2.2H63.222A2.211 2.211 0 0 1 61 71.8V54.2z" class="color-200"></path><path fill="#005CB9" d="M64 51h14a4 4 0 0 1 4 4v16a4 4 0 0 1-4 4H64a4 4 0 0 1-4-4V55a4 4 0 0 1 4-4zm0 2a2 2 0 0 0-2 2v16a2 2 0 0 0 2 2h14a2 2 0 0 0 2-2V55a2 2 0 0 0-2-2H64z" class="color-500"></path><path fill="#FFF" fill-rule="nonzero" d="M36 54.2c0-1.215.995-2.2 2.222-2.2h15.556c1.227 0 2.222.985 2.222 2.2v17.6c0 1.215-.995 2.2-2.222 2.2H38.222A2.211 2.211 0 0 1 36 71.8V54.2z" class="color-100"></path><path fill="#A6D2FF" fill-rule="nonzero" d="M47 59a4 4 0 1 1-8 0 4 4 0 0 1 8 0z" class="color-200"></path><rect width="14" height="2" x="39" y="69" fill="#40A0FF" fill-rule="nonzero" class="color-300" rx="1"></rect><rect width="10" height="2" x="39" y="65" fill="#0875E1" fill-rule="nonzero" class="color-400" rx="1"></rect><path fill="#005CB9" d="M39 51h14a4 4 0 0 1 4 4v16a4 4 0 0 1-4 4H39a4 4 0 0 1-4-4V55a4 4 0 0 1 4-4zm0 2a2 2 0 0 0-2 2v16a2 2 0 0 0 2 2h14a2 2 0 0 0 2-2V55a2 2 0 0 0-2-2H39zm4 8a2 2 0 1 0 0-4 2 2 0 0 0 0 4zm0 2a4 4 0 1 1 0-8 4 4 0 0 1 0 8z" class="color-500"></path><path fill="#FFF" fill-rule="nonzero" d="M11 54.2c0-1.215.995-2.2 2.222-2.2h15.556c1.227 0 2.222.985 2.222 2.2v17.6c0 1.215-.995 2.2-2.222 2.2H13.222A2.211 2.211 0 0 1 11 71.8V54.2z" class="color-100"></path><path fill="#A6D2FF" fill-rule="nonzero" d="M22 59a4 4 0 1 1-8 0 4 4 0 0 1 8 0z" class="color-200"></path><rect width="14" height="2" x="14" y="69" fill="#40A0FF" fill-rule="nonzero" class="color-300" rx="1"></rect><rect width="10" height="2" x="14" y="65" fill="#0875E1" fill-rule="nonzero" class="color-400" rx="1"></rect><path fill="#005CB9" d="M14 51h14a4 4 0 0 1 4 4v16a4 4 0 0 1-4 4H14a4 4 0 0 1-4-4V55a4 4 0 0 1 4-4zm0 2a2 2 0 0 0-2 2v16a2 2 0 0 0 2 2h14a2 2 0 0 0 2-2V55a2 2 0 0 0-2-2H14zm4 8a2 2 0 1 0 0-4 2 2 0 0 0 0 4zm0 2a4 4 0 1 1 0-8 4 4 0 0 1 0 8z" class="color-500"></path><path fill="#FFF" fill-rule="nonzero" d="M36 12.2c0-1.215.995-2.2 2.222-2.2h15.556c1.227 0 2.222.985 2.222 2.2v17.6c0 1.215-.995 2.2-2.222 2.2H38.222A2.211 2.211 0 0 1 36 29.8V12.2z" class="color-100"></path><path fill="#A6D2FF" fill-rule="nonzero" d="M47 17a4 4 0 1 1-8 0 4 4 0 0 1 8 0z" class="color-200"></path><rect width="14" height="2" x="39" y="27" fill="#40A0FF" fill-rule="nonzero" class="color-300" rx="1"></rect><rect width="10" height="2" x="39" y="23" fill="#0875E1" fill-rule="nonzero" class="color-400" rx="1"></rect><path fill="#005CB9" d="M39 9h14a4 4 0 0 1 4 4v16a4 4 0 0 1-4 4H39a4 4 0 0 1-4-4V13a4 4 0 0 1 4-4zm0 2a2 2 0 0 0-2 2v16a2 2 0 0 0 2 2h14a2 2 0 0 0 2-2V13a2 2 0 0 0-2-2H39zm4 8a2 2 0 1 0 0-4 2 2 0 0 0 0 4zm0 2a4 4 0 1 1 0-8 4 4 0 0 1 0 8z" class="color-500"></path><g class="animate-float-left"><path fill="#FFF" fill-rule="nonzero" stroke="#005CB9" stroke-width="2" d="M17 0H3a3 3 0 0 0-3 3v16a3 3 0 0 0 3 3h14a3 3 0 0 0 3-3V3a3 3 0 0 0-3-3z" class="color-100" transform="translate(61 52)"></path><path fill="#A6D2FF" fill-rule="nonzero" d="M11 7a4 4 0 1 1-8 0 4 4 0 0 1 8 0z" class="color-200" transform="translate(61 52)"></path><rect width="14" height="2" x="3" y="17" fill="#40A0FF" fill-rule="nonzero" class="color-300" rx="1" transform="translate(61 52)"></rect><rect width="10" height="2" x="3" y="13" fill="#0875E1" fill-rule="nonzero" class="color-400" rx="1" transform="translate(61 52)"></rect><path fill="#005CB9" d="M7 9a2 2 0 1 0 0-4 2 2 0 0 0 0 4zm0 2a4 4 0 1 0 0-8 4 4 0 0 0 0 8z" class="color-500" transform="translate(61 52)"></path></g></g></svg>