<svg xmlns="http://www.w3.org/2000/svg" width="92" height="92" class="wd-applet wd-applet-headcount-by-sales" focusable="false" role="presentation" viewBox="0 0 92 92"><g fill="none" fill-rule="evenodd" class="wd-icon-container"><g fill="#0B77E3" fill-opacity=".2" class="animate-flood"><path d="M46 82c-19.882 0-36-16.118-36-36s16.118-36 36-36 36 16.118 36 36-16.118 36-36 36z" class="color-400-alpha-20"></path></g><g class="animate-shrink"><path fill="#FFF" d="M72 79a1 1 0 0 1-.992 1H20.992A1 1 0 0 1 20 79V13a1 1 0 0 1 .992-1h50.016A1 1 0 0 1 72 13v66z" class="color-100"></path><path fill="#005CB9" fill-rule="nonzero" d="M74 79V13a3 3 0 0 0-2.992-3H20.992A3 3 0 0 0 18 13v66a3 3 0 0 0 2.992 3h50.016A3 3 0 0 0 74 79zm-2 0a1 1 0 0 1-.992 1H20.992A1 1 0 0 1 20 79V13a1 1 0 0 1 .992-1h50.016A1 1 0 0 1 72 13v66z" class="color-500"></path><path fill="#005CB9" d="M66.866 62.498a.991.991 0 0 1 .134.5v7.004c0 .551-.455.998-1 .998H51c-.552 0-1-.446-1-.998V63H28.009A1.007 1.007 0 0 1 27 61.997V38.003c0-.554.45-1.003 1.009-1.003H65.99c.557 0 1.009.451 1.009 1.003v23.994a.997.997 0 0 1-.134.5zM29 39v6h6v-6h-6zm0 8v6h6v-6h-6zm0 8v6h6v-6h-6zm8-16v6h13v-6H37zm0 8v6h13v-6H37zm0 8v6h13v-6H37zm15-16v6h13v-6H52zm0 8v6h13v-6H52zm0 8v6h13v-6H52zm0 8v6h13v-6H52z" class="color-500"></path><path fill="#40A0FF" d="M44 23.999v1.002a.993.993 0 0 1-.993.999H26.993a.996.996 0 0 1-.993-.999v-1.002c0-.556.445-.999.993-.999h16.014c.548 0 .993.447.993.999zm22 6v1.002c0 .556-.452.999-1.009.999H27.01c-.56 0-1.009-.447-1.009-.999v-1.002c0-.556.452-.999 1.009-.999H64.99c.56 0 1.009.447 1.009.999z" class="color-300"></path></g></g></svg>