<svg xmlns="http://www.w3.org/2000/svg" width="92" height="92" class="wd-applet wd-applet-scatter-graph" focusable="false" role="presentation" viewBox="0 0 92 92"><g fill="none" fill-rule="evenodd" class="wd-icon-container"><g fill="#0B77E3" fill-opacity=".2" class="animate-flood"><circle cx="36" cy="36" r="36" class="color-400-alpha-20" transform="translate(10 10)"></circle></g><rect width="64" height="50" x="14" y="19" fill="#FFF" class="color-100" rx="1"></rect><path fill="#40A0FF" d="M28 17.01c0-.558.455-1.01 1-1.01h34a1 1 0 0 1 1 1.01v1.98A1.01 1.01 0 0 1 63 20H29a1 1 0 0 1-1-1.01v-1.98zm35.31 53.04l2.08.034 2.2 8.207a.998.998 0 0 1-.708 1.223.999.999 0 0 1-1.225-.709L63.31 70.05zM28.326 70l-2.358 8.8a1.001 1.001 0 1 1-1.932-.515l2.213-8.258L28.325 70z" class="color-300"></path><path fill="#000" d="M66.172 73H64.1l-.79-2.95 2.08.034.78 2.916zm-38.65 0H25.45l.797-2.973L28.325 70l-.803 3z" class="color-shadow" opacity=".1"></path><circle cx="54" cy="30" r="4" fill="#A6D2FF" class="color-200"></circle><path fill="#40A0FF" d="M25 59h42.997a.999.999 0 1 1 0 2H24c-.552 0-1-.438-1-.996V30.996c0-.55.444-.996 1-.996.552 0 1 .438 1 .996V59zm20.5-14a4.5 4.5 0 1 1 0-9 4.5 4.5 0 0 1 0 9z" class="color-300"></path><path fill="#005CB9" d="M26 17a3.01 3.01 0 0 1 3-3h34a3 3 0 0 1 3 3h10.995A3.002 3.002 0 0 1 80 19.999V68A2.997 2.997 0 0 1 76.995 71h-9.326l1.816 6.778a3.002 3.002 0 0 1-2.12 3.682 3.001 3.001 0 0 1-3.675-2.129L61.457 71H30.13l-2.231 8.327a3.001 3.001 0 0 1-3.676 2.128 3.002 3.002 0 0 1-2.12-3.681L23.918 71h-8.913A3.002 3.002 0 0 1 12 68.001V20A2.997 2.997 0 0 1 15.005 17H26zm0 2H15.005a.997.997 0 0 0-1.005.999V68c0 .551.45.999 1.005.999h56.113c.55-.002.882 0 .882 0h4.995A.997.997 0 0 0 78 68.001V20c0-.551-.45-.999-1.005-.999H66a3.01 3.01 0 0 1-3 3H29a3 3 0 0 1-3-3zm37.53 52.007l2.092 7.806c.144.538.689.859 1.226.715.534-.143.85-.693.705-1.232L65.6 71.004l-2.07.003zm-37.545.006l-1.95 7.278c-.145.54.172 1.09.705 1.232a1.001 1.001 0 0 0 1.227-.714l2.09-7.804-2.072.008zM28 17.01c0-.557.455-1.009 1-1.009h34a1 1 0 0 1 1 1.01v1.98A1.01 1.01 0 0 1 63 20H29a1 1 0 0 1-1-1.01v-1.98zM54 32a2 2 0 1 1 0-4 2 2 0 0 1 0 4zm0 2a4 4 0 1 1 0-8 4 4 0 0 1 0 8zm-8.5 11a4.5 4.5 0 1 1 0-9 4.5 4.5 0 0 1 0 9zm0-2a2.5 2.5 0 1 0 0-5 2.5 2.5 0 0 0 0 5z" class="color-500"></path><g class="animate-shrink"><circle cx="6.5" cy="6.5" r="6.5" fill="#40A0FF" class="color-300" transform="translate(57 36)"></circle><path fill="#005CB9" fill-rule="nonzero" d="M6.5 13a6.5 6.5 0 1 1 0-13 6.5 6.5 0 0 1 0 13zm0-2a4.5 4.5 0 1 0 0-9 4.5 4.5 0 0 0 0 9z" class="color-500" transform="translate(57 36)"></path></g><g class="animate-shrink"><circle cx="5.5" cy="5.5" r="5.5" fill="#A6D2FF" class="color-200" transform="translate(28 43)"></circle><path fill="#005CB9" fill-rule="nonzero" d="M5.5 11a5.5 5.5 0 1 1 0-11 5.5 5.5 0 0 1 0 11zm0-2a3.5 3.5 0 1 0 0-7 3.5 3.5 0 0 0 0 7z" class="color-500" transform="translate(28 43)"></path></g><g class="animate-grow"><circle cx="3" cy="3" r="3" fill="#0B77E3" class="color-400" transform="translate(28 32)"></circle><path fill="#005CB9" fill-rule="nonzero" d="M3 6a3 3 0 1 1 0-6 3 3 0 0 1 0 6zm0-2a1 1 0 1 0 0-2 1 1 0 0 0 0 2z" class="color-500" transform="translate(28 32)"></path></g><g class="animate-grow"><circle cx="3.5" cy="3.5" r="3.5" fill="#0B77E3" class="color-400" transform="translate(52 50)"></circle><path fill="#005CB9" fill-rule="nonzero" d="M3.5 7a3.5 3.5 0 1 1 0-7 3.5 3.5 0 0 1 0 7zm0-2a1.5 1.5 0 1 0 0-3 1.5 1.5 0 0 0 0 3z" class="color-500" transform="translate(52 50)"></path></g></g></svg>