<svg xmlns="http://www.w3.org/2000/svg" width="92" height="92" class="wd-applet wd-applet-open-job-req" focusable="false" role="presentation" viewBox="0 0 92 92"><g fill="none" fill-rule="evenodd" class="wd-icon-container"><g fill="#0B77E3" fill-opacity=".2" class="animate-flood"><path d="M46 80c19.882 0 36-16.118 36-36S65.882 8 46 8 10 24.118 10 44s16.118 36 36 36z" class="color-400-alpha-20"></path></g><g class="animate-shrink"><path fill="#40A0FF" d="M2 2.999A1 1 0 0 1 3.003 2h73.994A1 1 0 0 1 78 2.999v60.002a1 1 0 0 1-1.003.999H3.003A1 1 0 0 1 2 63.001V2.999z" class="color-300" transform="translate(6 11)"></path><path fill="#005CB9" fill-rule="nonzero" d="M0 2.999A3 3 0 0 1 3.003 0h73.994A3 3 0 0 1 80 2.999v60.002A3 3 0 0 1 76.997 66H3.003A3 3 0 0 1 0 63.001V2.999zm2 0v60.002A1 1 0 0 0 3.003 64h73.994A1 1 0 0 0 78 63.001V2.999A1 1 0 0 0 76.997 2H3.003A1 1 0 0 0 2 2.999z" class="color-500" transform="translate(6 11)"></path><rect width="64" height="50" x="8" y="8" fill="#A6D2FF" class="color-200" rx="1" transform="translate(6 11)"></rect><path fill="#005CB9" fill-rule="nonzero" d="M6 8.999A2.997 2.997 0 0 1 9.005 6h61.99A3.002 3.002 0 0 1 74 8.999V57A2.997 2.997 0 0 1 70.995 60H9.005A3.002 3.002 0 0 1 6 57.001V9zm2 0V57c0 .551.45.999 1.005.999h61.99A.997.997 0 0 0 72 57.001V9C72 8.448 71.55 8 70.995 8H9.005A.997.997 0 0 0 8 8.999z" class="color-500" transform="translate(6 11)"></path><path fill="#0B77E3" d="M28.093 13.807l5.678 5.678 1.414-1.414L28.115 11l-.022.022L28.07 11 21 18.071l1.414 1.414 5.679-5.678z" class="color-400" transform="translate(6 11)"></path><circle cx="28" cy="12" r="2" fill="#005CB9" class="color-500" transform="translate(6 11)"></circle><path fill="#FFF" d="M13 19h29v41H13z" class="color-100" transform="translate(6 11)"></path><path fill="#005CB9" fill-rule="nonzero" d="M13 17h29a2 2 0 0 1 2 2v41a2 2 0 0 1-2 2H13a2 2 0 0 1-2-2V19a2 2 0 0 1 2-2zm0 2v41h29V19H13z" class="color-500" transform="translate(6 11)"></path><path fill="#40A0FF" d="M17 38.999c0-.552.447-.999.999-.999H29c.552 0 .999.443.999.999v1.002a.999.999 0 0 1-.999.999H18a.996.996 0 0 1-.999-.999v-1.002zm16 0A.997.997 0 0 1 34 38h3c.552 0 1 .443 1 .999v1.002A.997.997 0 0 1 37 41h-3c-.552 0-1-.443-1-.999v-1.002zm-16 6c0-.552.447-.999.999-.999H29c.552 0 .999.443.999.999v1.002a.999.999 0 0 1-.999.999H18a.996.996 0 0 1-.999-.999v-1.002zm16 0A.997.997 0 0 1 34 44h3c.552 0 1 .443 1 .999v1.002A.997.997 0 0 1 37 47h-3c-.552 0-1-.443-1-.999v-1.002zm-16 6c0-.552.447-.999.999-.999H29c.552 0 .999.443.999.999v1.002a.999.999 0 0 1-.999.999H18a.996.996 0 0 1-.999-.999v-1.002zm16 0A.997.997 0 0 1 34 50h3c.552 0 1 .443 1 .999v1.002A.997.997 0 0 1 37 53h-3c-.552 0-1-.443-1-.999v-1.002z" class="color-300" transform="translate(6 11)"></path><path fill="#005CB9" d="M17 27c0-.552.439-1 .999-1H37c.552 0 .999.444.999 1 0 .552-.439 1-.999 1H18A.997.997 0 0 1 17 27zm4 5a1 1 0 0 1 .999-1H33a1 1 0 1 1 0 2H22A.997.997 0 0 1 21 32z" class="color-500" transform="translate(6 11)"></path><path fill="#0B77E3" d="M58.093 15.807l5.678 5.678 1.414-1.414L58.115 13l-.022.022L58.07 13 51 20.071l1.414 1.414z" class="color-400" transform="translate(6 11)"></path><circle cx="58" cy="14" r="2" fill="#005CB9" class="color-500" transform="translate(6 11)"></circle><path fill="#FFF" d="M49 21h18v25H49z" class="color-100" transform="translate(6 11)"></path><path fill="#005CB9" fill-rule="nonzero" d="M49 19h18a2 2 0 0 1 2 2v25a2 2 0 0 1-2 2H49a2 2 0 0 1-2-2V21a2 2 0 0 1 2-2zm0 2v25h18V21H49z" class="color-500" transform="translate(6 11)"></path><path fill="#40A0FF" d="M52 33.185c0-.331.266-.6.601-.6H59.4c.332 0 .601.278.601.6v.8c0 .332-.266.6-.601.6H52.6a.607.607 0 0 1-.601-.6v-.8zm10 0c0-.331.278-.6.6-.6h.8c.331 0 .6.278.6.6v.8c0 .332-.278.6-.6.6h-.8a.606.606 0 0 1-.6-.6v-.8zm-10 3.659c0-.331.266-.6.601-.6H59.4c.332 0 .601.278.601.6v.8c0 .331-.266.6-.601.6H52.6a.607.607 0 0 1-.601-.6v-.8zm10 0c0-.331.278-.6.6-.6h.8c.331 0 .6.278.6.6v.8c0 .331-.278.6-.6.6h-.8a.606.606 0 0 1-.6-.6v-.8zm-10 3.659c0-.332.266-.6.601-.6H59.4c.332 0 .601.278.601.6v.8c0 .33-.266.6-.601.6H52.6a.607.607 0 0 1-.601-.6v-.8zm10 0c0-.332.278-.6.6-.6h.8c.331 0 .6.278.6.6v.8c0 .33-.278.6-.6.6h-.8a.606.606 0 0 1-.6-.6v-.8z" class="color-300" transform="translate(6 11)"></path><rect width="12" height="2" x="52" y="26" fill="#005CB9" class="color-500" rx=".6" transform="translate(6 11)"></rect></g></g></svg>